<svg width="96" height="85" viewBox="0 0 96 85" fill="none" xmlns="http://www.w3.org/2000/svg">
<path d="M48.2004 29.1998C48.8004 28.2998 49.4003 27.4998 50.1003 26.6998C47.4003 20.2998 41.0004 15.7998 33.7004 15.7998C23.9004 15.7998 15.9004 23.7998 15.9004 33.5998C15.9004 39.9998 19.3004 45.5998 24.4004 48.7998C26.2004 43.9998 30.4004 40.3998 35.5004 39.4998C37.3004 33.9998 42.2004 29.8998 48.2004 29.1998Z" fill="#FFE500"/>
<path d="M33.5998 12.1C34.8998 12.1 35.8998 11.1 35.8998 9.80005V2.30005C35.8998 1.00005 34.8998 0 33.5998 0C32.2998 0 31.2998 1.00005 31.2998 2.30005V9.80005C31.2998 11.1 32.3998 12.1 33.5998 12.1Z" fill="#FF7A00"/>
<path d="M15.2 18.4C15.6 18.9 16.2 19.1 16.8 19.1C17.4 19.1 18 18.9 18.4 18.4C19.3 17.5 19.3 16 18.4 15.1L13.1 9.8C12.2 8.9 10.7 8.9 9.8 9.8C8.9 10.7 8.9 12.2 9.8 13.1L15.2 18.4Z" fill="#FF7A00"/>
<path d="M12.1 33.5998C12.1 32.2998 11.1 31.2998 9.79999 31.2998H2.29999C0.999988 31.2998 0 32.2998 0 33.5998C0 34.8998 0.999988 35.8998 2.29999 35.8998H9.79999C11.1 35.8998 12.1 34.8998 12.1 33.5998Z" fill="#FF7A00"/>
<path d="M15.1996 48.8L9.89961 54.1C8.99961 55 8.99961 56.5 9.89961 57.4C10.3996 57.9 10.8996 58.1 11.4996 58.1C12.0996 58.1 12.6996 57.9 13.0996 57.4L18.3996 52.1C19.2996 51.2 19.2996 49.7 18.3996 48.8C17.4996 47.9 16.0996 47.9 15.1996 48.8Z" fill="#FF7A00"/>
<path d="M50.5 19.1C51.1 19.1 51.7 18.9 52.1 18.4L57.4 13.1C58.3 12.2 58.3 10.7 57.4 9.8C56.5 8.9 55 8.9 54.1 9.8L48.8 15.1C47.9 16 47.9 17.5 48.8 18.4C49.3 18.9 49.9 19.1 50.5 19.1Z" fill="#FF7A00"/>
<path d="M83.4 36.5998C81.4 29.1998 74.7 23.7998 66.6 23.7998C59.6 23.7998 53.6 27.8998 50.9 33.7998C50.6 33.7998 50.2 33.6998 49.9 33.6998C44.2 33.6998 39.5 38.1998 39.3 43.8998C39 43.8998 38.6 43.7998 38.3 43.7998C32.6 43.7998 28 48.3998 28 54.0998C28 59.7998 32.6 64.3998 38.3 64.3998H81.1C88.8 64.3998 95.1 58.0998 95.1 50.3998C95 43.3998 90 37.6998 83.4 36.5998Z" fill="#757983"/>
<path d="M42.9997 68.2999C41.7997 67.7999 40.4997 68.3998 39.9997 69.5998L35.0997 81.6999C34.5997 82.8999 35.1997 84.1999 36.3997 84.6999C36.6997 84.7999 36.9997 84.8999 37.2997 84.8999C38.1997 84.8999 39.0997 84.3998 39.3997 83.4998L44.2997 71.3999C44.7997 70.0999 44.1997 68.6999 42.9997 68.2999Z" fill="#69B2D2"/>
<path d="M55.1999 68.2999C53.9999 67.7999 52.6999 68.3998 52.1999 69.5998L47.2999 81.6999C46.7999 82.8999 47.3999 84.1999 48.5999 84.6999C48.8999 84.7999 49.1999 84.8999 49.4999 84.8999C50.3999 84.8999 51.2999 84.3998 51.5999 83.4998L56.4999 71.3999C56.9999 70.0999 56.3999 68.6999 55.1999 68.2999Z" fill="#69B2D2"/>
<path d="M67.4001 68.2999C66.2001 67.7999 64.9001 68.3998 64.4001 69.5998L59.5001 81.6999C59.0001 82.8999 59.6001 84.1999 60.8001 84.6999C61.1001 84.7999 61.4001 84.8999 61.7001 84.8999C62.6001 84.8999 63.5001 84.3998 63.8001 83.4998L68.7001 71.3999C69.1001 70.0999 68.6001 68.6999 67.4001 68.2999Z" fill="#69B2D2"/>
<path d="M79.6002 68.2999C78.4002 67.7999 77.1002 68.3998 76.6002 69.5998L71.7003 81.6999C71.2003 82.8999 71.8003 84.1999 73.0003 84.6999C73.3003 84.7999 73.6003 84.8999 73.9003 84.8999C74.8003 84.8999 75.7003 84.3998 76.0003 83.4998L80.9003 71.3999C81.3003 70.0999 80.8002 68.6999 79.6002 68.2999Z" fill="#69B2D2"/>
</svg>
